<mxfile host="65bd71144e">
    <diagram id="Bi9qd51IjeidhJhRthrw" name="Page-1">
        <mxGraphModel dx="755" dy="549" grid="1" gridSize="10" guides="1" tooltips="1" connect="1" arrows="1" fold="1" page="1" pageScale="1" pageWidth="850" pageHeight="1100" background="#ffffff" math="0" shadow="0">
            <root>
                <mxCell id="0"/>
                <mxCell id="1" parent="0"/>
                <mxCell id="36" style="edgeStyle=none;html=1;entryX=0.5;entryY=0;entryDx=0;entryDy=0;fontSize=13;endArrow=none;endFill=0;jumpStyle=arc;movable=1;resizable=1;rotatable=1;deletable=1;editable=1;connectable=1;" parent="1" source="2" target="3" edge="1">
                    <mxGeometry relative="1" as="geometry"/>
                </mxCell>
                <mxCell id="56" style="edgeStyle=none;jumpStyle=arc;html=1;exitX=1;exitY=1;exitDx=0;exitDy=0;entryX=-0.034;entryY=0.565;entryDx=0;entryDy=0;entryPerimeter=0;fontSize=13;startArrow=classic;startFill=1;endArrow=none;endFill=0;movable=1;resizable=1;rotatable=1;deletable=1;editable=1;connectable=1;" parent="1" source="3" target="52" edge="1">
                    <mxGeometry relative="1" as="geometry">
                        <Array as="points">
                            <mxPoint x="265" y="430"/>
                            <mxPoint x="265" y="535"/>
                        </Array>
                    </mxGeometry>
                </mxCell>
                <mxCell id="3" value="Desk Booking&lt;br&gt;Details&lt;br&gt;Page" style="ellipse;whiteSpace=wrap;html=1;aspect=fixed;movable=1;resizable=1;rotatable=1;deletable=1;editable=1;connectable=1;" parent="1" vertex="1">
                    <mxGeometry x="125" y="370" width="70" height="70" as="geometry"/>
                </mxCell>
                <mxCell id="6" value="" style="endArrow=none;html=1;fontSize=13;exitX=1;exitY=0.5;exitDx=0;exitDy=0;movable=1;resizable=1;rotatable=1;deletable=1;editable=1;connectable=1;" parent="1" source="3" edge="1">
                    <mxGeometry width="50" height="50" relative="1" as="geometry">
                        <mxPoint x="475" y="490" as="sourcePoint"/>
                        <mxPoint x="385" y="340" as="targetPoint"/>
                        <Array as="points">
                            <mxPoint x="385" y="405"/>
                        </Array>
                    </mxGeometry>
                </mxCell>
                <mxCell id="2" value="Employee" style="shape=umlActor;verticalLabelPosition=bottom;verticalAlign=top;outlineConnect=0;gradientColor=none;fillColor=default;labelBorderColor=none;fontColor=#0d0d0d;labelBackgroundColor=#faf9fb;spacing=3;html=1;labelPosition=center;align=center;movable=1;resizable=1;rotatable=1;deletable=1;editable=1;connectable=1;" parent="1" vertex="1">
                    <mxGeometry x="145" y="260" width="30" height="60" as="geometry"/>
                </mxCell>
                <mxCell id="39" value="Display&lt;br&gt;Previous&lt;br&gt;Booking" style="ellipse;shape=umlControl;whiteSpace=wrap;html=1;movable=1;resizable=1;rotatable=1;deletable=1;editable=1;connectable=1;" parent="1" vertex="1">
                    <mxGeometry x="351" y="260" width="70" height="80" as="geometry"/>
                </mxCell>
                <mxCell id="40" value="" style="endArrow=none;html=1;fontSize=13;jumpStyle=arc;movable=1;resizable=1;rotatable=1;deletable=1;editable=1;connectable=1;" parent="1" edge="1">
                    <mxGeometry width="50" height="50" relative="1" as="geometry">
                        <mxPoint x="105" y="424" as="sourcePoint"/>
                        <mxPoint x="105" y="384" as="targetPoint"/>
                    </mxGeometry>
                </mxCell>
                <mxCell id="41" value="" style="endArrow=none;html=1;fontSize=13;jumpStyle=arc;exitX=0;exitY=0.5;exitDx=0;exitDy=0;movable=1;resizable=1;rotatable=1;deletable=1;editable=1;connectable=1;" parent="1" source="3" edge="1">
                    <mxGeometry width="50" height="50" relative="1" as="geometry">
                        <mxPoint x="115" y="450" as="sourcePoint"/>
                        <mxPoint x="105" y="405" as="targetPoint"/>
                    </mxGeometry>
                </mxCell>
                <mxCell id="49" style="edgeStyle=none;jumpStyle=arc;html=1;entryX=0.5;entryY=1;entryDx=0;entryDy=0;fontSize=13;endArrow=none;endFill=0;movable=1;resizable=1;rotatable=1;deletable=1;editable=1;connectable=1;" parent="1" source="42" target="3" edge="1">
                    <mxGeometry relative="1" as="geometry">
                        <Array as="points">
                            <mxPoint x="160" y="652"/>
                        </Array>
                    </mxGeometry>
                </mxCell>
                <mxCell id="42" value="Check&lt;br&gt;Required&lt;br&gt;Fields" style="ellipse;shape=umlControl;whiteSpace=wrap;html=1;movable=1;resizable=1;rotatable=1;deletable=1;editable=1;connectable=1;" parent="1" vertex="1">
                    <mxGeometry x="255" y="612" width="70" height="80" as="geometry"/>
                </mxCell>
                <mxCell id="45" value="Click &quot;Book&quot;" style="text;strokeColor=none;align=center;fillColor=none;html=1;verticalAlign=middle;whiteSpace=wrap;rounded=0;fontSize=13;movable=1;resizable=1;rotatable=1;deletable=1;editable=1;connectable=1;" parent="1" vertex="1">
                    <mxGeometry x="158" y="500" width="90" height="30" as="geometry"/>
                </mxCell>
                <mxCell id="51" style="edgeStyle=none;jumpStyle=arc;html=1;fontSize=13;startArrow=classic;startFill=1;endArrow=none;endFill=0;movable=1;resizable=1;rotatable=1;deletable=1;editable=1;connectable=1;" parent="1" source="46" target="42" edge="1">
                    <mxGeometry relative="1" as="geometry"/>
                </mxCell>
                <mxCell id="46" value="Inform Employee About Missing Feilds" style="ellipse;shape=umlControl;whiteSpace=wrap;html=1;movable=1;resizable=1;rotatable=1;deletable=1;editable=1;connectable=1;" parent="1" vertex="1">
                    <mxGeometry x="420" y="603" width="85" height="98" as="geometry"/>
                </mxCell>
                <mxCell id="54" style="edgeStyle=none;jumpStyle=arc;html=1;entryX=0.257;entryY=0.18;entryDx=0;entryDy=0;entryPerimeter=0;fontSize=13;startArrow=classic;startFill=1;endArrow=none;endFill=0;movable=1;resizable=1;rotatable=1;deletable=1;editable=1;connectable=1;" parent="1" source="52" target="46" edge="1">
                    <mxGeometry relative="1" as="geometry">
                        <Array as="points">
                            <mxPoint x="443" y="530"/>
                        </Array>
                    </mxGeometry>
                </mxCell>
                <mxCell id="52" value="Highlight&lt;br&gt;Missing&lt;br&gt;Fields" style="ellipse;shape=umlControl;whiteSpace=wrap;html=1;movable=1;resizable=1;rotatable=1;deletable=1;editable=1;connectable=1;" parent="1" vertex="1">
                    <mxGeometry x="335" y="490" width="70" height="80" as="geometry"/>
                </mxCell>
                <mxCell id="62" style="edgeStyle=none;jumpStyle=arc;html=1;entryX=0.491;entryY=0.99;entryDx=0;entryDy=0;entryPerimeter=0;fontSize=13;startArrow=classic;startFill=1;endArrow=none;endFill=0;movable=1;resizable=1;rotatable=1;deletable=1;editable=1;connectable=1;" parent="1" source="57" target="42" edge="1">
                    <mxGeometry relative="1" as="geometry"/>
                </mxCell>
                <mxCell id="75" style="edgeStyle=none;jumpStyle=arc;html=1;entryX=1;entryY=0.512;entryDx=0;entryDy=0;entryPerimeter=0;fontSize=13;startArrow=none;startFill=0;endArrow=classic;endFill=1;movable=1;resizable=1;rotatable=1;deletable=1;editable=1;connectable=1;" parent="1" source="57" target="70" edge="1">
                    <mxGeometry relative="1" as="geometry"/>
                </mxCell>
                <mxCell id="57" value="Is Prefered Neightbour Is Available" style="ellipse;shape=umlControl;whiteSpace=wrap;html=1;movable=1;resizable=1;rotatable=1;deletable=1;editable=1;connectable=1;" parent="1" vertex="1">
                    <mxGeometry x="246.5" y="740" width="87" height="100" as="geometry"/>
                </mxCell>
                <mxCell id="65" style="edgeStyle=none;jumpStyle=arc;html=1;fontSize=13;startArrow=classic;startFill=1;endArrow=none;endFill=0;movable=1;resizable=1;rotatable=1;deletable=1;editable=1;connectable=1;" parent="1" source="64" edge="1">
                    <mxGeometry relative="1" as="geometry">
                        <mxPoint x="335" y="790" as="targetPoint"/>
                    </mxGeometry>
                </mxCell>
                <mxCell id="81" style="edgeStyle=none;jumpStyle=arc;html=1;entryX=0;entryY=0.5;entryDx=0;entryDy=0;fontSize=13;fontColor=default;startArrow=none;startFill=0;endArrow=classic;endFill=1;movable=1;resizable=1;rotatable=1;deletable=1;editable=1;connectable=1;" parent="1" source="64" target="80" edge="1">
                    <mxGeometry relative="1" as="geometry"/>
                </mxCell>
                <mxCell id="64" value="Add To Database" style="ellipse;shape=umlControl;whiteSpace=wrap;html=1;movable=1;resizable=1;rotatable=1;deletable=1;editable=1;connectable=1;" parent="1" vertex="1">
                    <mxGeometry x="545" y="750" width="70" height="80" as="geometry"/>
                </mxCell>
                <mxCell id="66" value="Yes" style="text;strokeColor=none;align=center;fillColor=none;html=1;verticalAlign=middle;whiteSpace=wrap;rounded=0;fontSize=13;movable=1;resizable=1;rotatable=1;deletable=1;editable=1;connectable=1;" parent="1" vertex="1">
                    <mxGeometry x="404" y="760" width="60" height="30" as="geometry"/>
                </mxCell>
                <mxCell id="68" value="" style="endArrow=none;html=1;fontSize=13;jumpStyle=arc;movable=1;resizable=1;rotatable=1;deletable=1;editable=1;connectable=1;" parent="1" edge="1">
                    <mxGeometry width="50" height="50" relative="1" as="geometry">
                        <mxPoint x="545" y="687" as="sourcePoint"/>
                        <mxPoint x="615" y="687" as="targetPoint"/>
                    </mxGeometry>
                </mxCell>
                <mxCell id="77" style="edgeStyle=none;jumpStyle=arc;html=1;fontSize=13;fontColor=default;startArrow=none;startFill=0;endArrow=classic;endFill=1;movable=1;resizable=1;rotatable=1;deletable=1;editable=1;connectable=1;" parent="1" source="67" edge="1">
                    <mxGeometry relative="1" as="geometry">
                        <mxPoint x="580" y="750" as="targetPoint"/>
                    </mxGeometry>
                </mxCell>
                <mxCell id="78" style="edgeStyle=none;jumpStyle=arc;html=1;entryX=1.032;entryY=0.661;entryDx=0;entryDy=0;entryPerimeter=0;fontSize=13;fontColor=default;startArrow=none;startFill=0;endArrow=classic;endFill=1;movable=1;resizable=1;rotatable=1;deletable=1;editable=1;connectable=1;" parent="1" source="67" target="3" edge="1">
                    <mxGeometry relative="1" as="geometry">
                        <Array as="points">
                            <mxPoint x="580" y="420"/>
                        </Array>
                    </mxGeometry>
                </mxCell>
                <mxCell id="67" value="Desk Booking" style="ellipse;whiteSpace=wrap;html=1;aspect=fixed;movable=1;resizable=1;rotatable=1;deletable=1;editable=1;connectable=1;" parent="1" vertex="1">
                    <mxGeometry x="545" y="616" width="70" height="70" as="geometry"/>
                </mxCell>
                <mxCell id="71" style="edgeStyle=none;jumpStyle=arc;html=1;fontSize=13;startArrow=none;startFill=0;endArrow=none;endFill=0;entryX=0.23;entryY=0.971;entryDx=0;entryDy=0;entryPerimeter=0;movable=1;resizable=1;rotatable=1;deletable=1;editable=1;connectable=1;" parent="1" source="70" target="3" edge="1">
                    <mxGeometry relative="1" as="geometry">
                        <mxPoint x="144" y="440" as="targetPoint"/>
                    </mxGeometry>
                </mxCell>
                <mxCell id="70" value="Inform Employee Not Available Neighbour Hood" style="ellipse;shape=umlControl;whiteSpace=wrap;html=1;movable=1;resizable=1;rotatable=1;deletable=1;editable=1;connectable=1;" parent="1" vertex="1">
                    <mxGeometry x="84" y="731" width="111" height="114" as="geometry"/>
                </mxCell>
                <mxCell id="76" value="No" style="text;strokeColor=none;align=center;fillColor=none;html=1;verticalAlign=middle;whiteSpace=wrap;rounded=0;fontSize=13;movable=1;resizable=1;rotatable=1;deletable=1;editable=1;connectable=1;" parent="1" vertex="1">
                    <mxGeometry x="195" y="760" width="60" height="30" as="geometry"/>
                </mxCell>
                <mxCell id="79" value="" style="endArrow=none;html=1;fontSize=13;jumpStyle=arc;movable=1;resizable=1;rotatable=1;deletable=1;editable=1;connectable=1;" parent="1" edge="1">
                    <mxGeometry width="50" height="50" relative="1" as="geometry">
                        <mxPoint x="675" y="825.0699999999999" as="sourcePoint"/>
                        <mxPoint x="745" y="825.0699999999999" as="targetPoint"/>
                    </mxGeometry>
                </mxCell>
                <mxCell id="80" value="Database" style="ellipse;whiteSpace=wrap;html=1;aspect=fixed;movable=1;resizable=1;rotatable=1;deletable=1;editable=1;connectable=1;" parent="1" vertex="1">
                    <mxGeometry x="675" y="754.0699999999999" width="70" height="70" as="geometry"/>
                </mxCell>
                <mxCell id="144" value="Pass" style="text;strokeColor=none;align=center;fillColor=none;html=1;verticalAlign=middle;whiteSpace=wrap;rounded=0;fontSize=13;movable=1;resizable=1;rotatable=1;deletable=1;editable=1;connectable=1;" parent="1" vertex="1">
                    <mxGeometry x="280" y="701" width="60" height="30" as="geometry"/>
                </mxCell>
                <mxCell id="145" value="Fail" style="text;strokeColor=none;align=center;fillColor=none;html=1;verticalAlign=middle;whiteSpace=wrap;rounded=0;fontSize=13;movable=1;resizable=1;rotatable=1;deletable=1;editable=1;connectable=1;" parent="1" vertex="1">
                    <mxGeometry x="339" y="625" width="60" height="30" as="geometry"/>
                </mxCell>
                <mxCell id="146" value="Robustness" style="text;strokeColor=none;align=center;fillColor=none;html=1;verticalAlign=middle;whiteSpace=wrap;rounded=0;labelBackgroundColor=#FFFFFF;labelBorderColor=none;fontSize=22;fontColor=#080808;fontStyle=1;direction=west;movable=1;resizable=1;rotatable=1;deletable=1;editable=1;connectable=1;" parent="1" vertex="1">
                    <mxGeometry x="353" y="157" width="150" height="40" as="geometry"/>
                </mxCell>
            </root>
        </mxGraphModel>
    </diagram>
</mxfile>